<?xml version="1.0" encoding="UTF-8"?>
<svg id="Calque_2" data-name="Calque 2" xmlns="http://www.w3.org/2000/svg" viewBox="0 0 25.92 103.58">
  <defs>
    <style>
      .cls-1 {
        fill: none;
      }

      .cls-1, .cls-2 {
        stroke: #1d1d1b;
        stroke-miterlimit: 10;
        stroke-width: .25px;
      }

      .cls-2 {
        fill: #fff;
      }
    </style>
  </defs>
  <g id="Calque_3" data-name="Calque 3">
    <rect class="cls-2" x=".12" y=".12" width="25.67" height="103.33"/>
    <line class="cls-1" x1="11.99" y1="10.77" x2="14.88" y2="91.92"/>
    <line class="cls-1" x1="9.98" y1="11.53" x2="13.6" y2="92.9"/>
    <line class="cls-1" x1="10.88" y1="9.75" x2="14.58" y2="92.78"/>
    <line class="cls-1" x1="9.45" y1="16.7" x2="12.77" y2="91.27"/>
    <line class="cls-1" x1="12.73" y1="13.41" x2="15.36" y2="91.59"/>
    <line class="cls-1" x1="8.88" y1="18.59" x2="11.79" y2="88.94"/>
    <line class="cls-1" x1="13.14" y1="10.77" x2="16.02" y2="91.92"/>
    <line class="cls-1" x1="13.91" y1="9.42" x2="16.8" y2="90.58"/>
    <line class="cls-1" x1="8.01" y1="11.64" x2="10.89" y2="92.79"/>
    <line class="cls-1" x1="14.58" y1="7.79" x2="17.47" y2="88.94"/>
    <line class="cls-1" x1="7.44" y1="9.25" x2="10.32" y2="90.4"/>
    <line class="cls-1" x1="15.36" y1="8.17" x2="18.24" y2="89.33"/>
    <line class="cls-1" x1="7.09" y1="10.69" x2="9.98" y2="91.84"/>
    <line class="cls-1" x1="16.02" y1="10.59" x2="18.91" y2="91.74"/>
    <line class="cls-1" x1="6.56" y1="13.19" x2="9.45" y2="94.34"/>
    <line class="cls-1" x1="16.8" y1="9.42" x2="19.69" y2="90.58"/>
    <line class="cls-1" x1="5.64" y1="9.42" x2="8.53" y2="90.58"/>
    <line class="cls-1" x1="17.47" y1="9.42" x2="20.36" y2="90.58"/>
    <line class="cls-1" x1="5.12" y1="11.64" x2="8.01" y2="92.79"/>
    <line class="cls-1" x1="18.24" y1="9.25" x2="21.13" y2="90.4"/>
    <line class="cls-1" x1="4.55" y1="10.77" x2="7.44" y2="91.92"/>
    <line class="cls-1" x1="18.91" y1="8.17" x2="21.8" y2="89.33"/>
    <line class="cls-1" x1="19.69" y1="6.26" x2="22.58" y2="87.41"/>
    <line class="cls-1" x1="3.67" y1="10.12" x2="6.56" y2="91.27"/>
  </g>
</svg>