<?xml version="1.0" encoding="UTF-8"?>
<svg id="Calque_2" data-name="Calque 2" xmlns="http://www.w3.org/2000/svg" viewBox="0 0 89.58 162.92">
  <defs>
    <style>
      .cls-1 {
        fill: #fff;
        stroke: #fff;
      }

      .cls-1, .cls-2 {
        stroke-miterlimit: 10;
        stroke-width: .25px;
      }

      .cls-2 {
        stroke: #1d1d1b;
      }
    </style>
  </defs>
  <g id="Calque_3" data-name="Calque 3">
    <rect class="cls-2" x=".12" y=".12" width="89.33" height="162.67"/>
    <line class="cls-1" x1="40.82" y1="19.38" x2="50.87" y2="147.14"/>
    <line class="cls-1" x1="33.8" y1="20.59" x2="46.41" y2="148.67"/>
    <line class="cls-1" x1="36.96" y1="17.78" x2="49.82" y2="148.49"/>
    <line class="cls-1" x1="31.97" y1="28.73" x2="43.52" y2="146.12"/>
    <line class="cls-1" x1="43.39" y1="23.55" x2="52.52" y2="146.61"/>
    <line class="cls-1" x1="29.98" y1="31.7" x2="40.1" y2="142.45"/>
    <line class="cls-1" x1="44.8" y1="19.38" x2="54.85" y2="147.14"/>
    <line class="cls-1" x1="47.5" y1="17.27" x2="57.55" y2="145.02"/>
    <line class="cls-1" x1="26.94" y1="20.75" x2="36.99" y2="148.51"/>
    <line class="cls-1" x1="49.82" y1="14.7" x2="59.88" y2="142.45"/>
    <line class="cls-1" x1="24.96" y1="17" x2="35.01" y2="144.75"/>
    <line class="cls-1" x1="52.52" y1="15.3" x2="62.57" y2="143.05"/>
    <line class="cls-1" x1="23.75" y1="19.26" x2="33.8" y2="147.01"/>
    <line class="cls-1" x1="54.85" y1="19.1" x2="64.9" y2="146.86"/>
    <line class="cls-1" x1="21.91" y1="23.2" x2="31.97" y2="150.95"/>
    <line class="cls-1" x1="57.55" y1="17.27" x2="67.6" y2="145.02"/>
    <line class="cls-1" x1="18.72" y1="17.27" x2="28.77" y2="145.02"/>
    <line class="cls-1" x1="59.88" y1="17.27" x2="69.93" y2="145.02"/>
    <line class="cls-1" x1="16.89" y1="20.75" x2="26.94" y2="148.51"/>
    <line class="cls-1" x1="62.57" y1="17" x2="72.63" y2="144.75"/>
    <line class="cls-1" x1="14.91" y1="19.38" x2="24.96" y2="147.14"/>
    <line class="cls-1" x1="64.9" y1="15.3" x2="74.95" y2="143.05"/>
    <line class="cls-1" x1="67.6" y1="12.29" x2="77.65" y2="140.04"/>
    <line class="cls-1" x1="11.86" y1="18.36" x2="21.91" y2="146.12"/>
  </g>
</svg>