<?xml version="1.0" encoding="UTF-8"?>
<svg id="Calque_2" data-name="Calque 2" xmlns="http://www.w3.org/2000/svg" viewBox="0 0 86.13 145.58">
  <defs>
    <style>
      .cls-1 {
        fill: #73ff77;
        stroke: #1d1d1b;
      }

      .cls-1, .cls-2 {
        stroke-miterlimit: 10;
        stroke-width: .25px;
      }

      .cls-2 {
        stroke: #000;
      }
    </style>
  </defs>
  <g id="Calque_3" data-name="Calque 3">
    <rect class="cls-1" x=".12" y=".12" width="85.88" height="145.33"/>
    <line class="cls-2" x1="38.76" y1="11.54" x2="48.81" y2="139.29"/>
    <line class="cls-2" x1="31.74" y1="12.74" x2="44.35" y2="140.83"/>
    <line class="cls-2" x1="34.91" y1="9.94" x2="47.77" y2="140.65"/>
    <line class="cls-2" x1="29.91" y1="20.89" x2="41.47" y2="138.27"/>
    <line class="cls-2" x1="41.34" y1="15.7" x2="50.47" y2="138.77"/>
    <line class="cls-2" x1="27.93" y1="23.85" x2="38.05" y2="134.61"/>
    <line class="cls-2" x1="42.75" y1="11.54" x2="52.8" y2="139.29"/>
    <line class="cls-2" x1="45.45" y1="9.43" x2="55.5" y2="137.18"/>
    <line class="cls-2" x1="24.89" y1="12.91" x2="34.94" y2="140.66"/>
    <line class="cls-2" x1="47.77" y1="6.85" x2="57.82" y2="134.61"/>
    <line class="cls-2" x1="22.91" y1="9.16" x2="32.96" y2="136.91"/>
    <line class="cls-2" x1="50.47" y1="7.46" x2="60.52" y2="135.21"/>
    <line class="cls-2" x1="21.69" y1="11.42" x2="31.74" y2="139.17"/>
    <line class="cls-2" x1="52.8" y1="11.26" x2="62.85" y2="139.01"/>
    <line class="cls-2" x1="19.86" y1="15.35" x2="29.91" y2="143.11"/>
    <line class="cls-2" x1="55.5" y1="9.43" x2="65.55" y2="137.18"/>
    <line class="cls-2" x1="16.67" y1="9.43" x2="26.72" y2="137.18"/>
    <line class="cls-2" x1="57.82" y1="9.43" x2="67.88" y2="137.18"/>
    <line class="cls-2" x1="14.84" y1="12.91" x2="24.89" y2="140.66"/>
    <line class="cls-2" x1="60.52" y1="9.16" x2="70.57" y2="136.91"/>
    <line class="cls-2" x1="12.85" y1="11.54" x2="22.91" y2="139.29"/>
    <line class="cls-2" x1="62.85" y1="7.46" x2="72.9" y2="135.21"/>
    <line class="cls-2" x1="65.55" y1="4.45" x2="75.6" y2="132.2"/>
    <line class="cls-2" x1="9.81" y1="10.52" x2="19.86" y2="138.27"/>
  </g>
</svg>